<mxfile host="app.diagrams.net" agent="Mozilla/5.0 (Windows NT 10.0; Win64; x64) AppleWebKit/537.36 (KHTML, like Gecko) Chrome/128.0.0.0 Safari/537.36" version="24.7.8">
  <diagram name="Página-1" id="IUIvGgPIwMAHEzuE5n6P">
    <mxGraphModel dx="1530" dy="724" grid="1" gridSize="10" guides="1" tooltips="1" connect="1" arrows="1" fold="1" page="1" pageScale="1" pageWidth="827" pageHeight="1169" math="0" shadow="0">
      <root>
        <mxCell id="0" />
        <mxCell id="1" parent="0" />
        <mxCell id="4RP1gJWLFT8ZAEQXTZWP-1" value="Empresa" style="swimlane;fontStyle=0;childLayout=stackLayout;horizontal=1;startSize=26;fillColor=none;horizontalStack=0;resizeParent=1;resizeParentMax=0;resizeLast=0;collapsible=1;marginBottom=0;whiteSpace=wrap;html=1;" parent="1" vertex="1">
          <mxGeometry x="414" y="10" width="186" height="104" as="geometry" />
        </mxCell>
        <mxCell id="4RP1gJWLFT8ZAEQXTZWP-2" value="nombre: string" style="text;strokeColor=none;fillColor=none;align=left;verticalAlign=top;spacingLeft=4;spacingRight=4;overflow=hidden;rotatable=0;points=[[0,0.5],[1,0.5]];portConstraint=eastwest;whiteSpace=wrap;html=1;" parent="4RP1gJWLFT8ZAEQXTZWP-1" vertex="1">
          <mxGeometry y="26" width="186" height="26" as="geometry" />
        </mxCell>
        <mxCell id="4RP1gJWLFT8ZAEQXTZWP-3" value="cuit: string" style="text;strokeColor=none;fillColor=none;align=left;verticalAlign=top;spacingLeft=4;spacingRight=4;overflow=hidden;rotatable=0;points=[[0,0.5],[1,0.5]];portConstraint=eastwest;whiteSpace=wrap;html=1;" parent="4RP1gJWLFT8ZAEQXTZWP-1" vertex="1">
          <mxGeometry y="52" width="186" height="26" as="geometry" />
        </mxCell>
        <mxCell id="4RP1gJWLFT8ZAEQXTZWP-4" value="empleados:Empleado" style="text;strokeColor=none;fillColor=none;align=left;verticalAlign=top;spacingLeft=4;spacingRight=4;overflow=hidden;rotatable=0;points=[[0,0.5],[1,0.5]];portConstraint=eastwest;whiteSpace=wrap;html=1;" parent="4RP1gJWLFT8ZAEQXTZWP-1" vertex="1">
          <mxGeometry y="78" width="186" height="26" as="geometry" />
        </mxCell>
        <mxCell id="zsc-BNoff0piDxbKsgNx-9" style="edgeStyle=orthogonalEdgeStyle;rounded=0;orthogonalLoop=1;jettySize=auto;html=1;exitX=0.75;exitY=0;exitDx=0;exitDy=0;entryX=0;entryY=0.5;entryDx=0;entryDy=0;" edge="1" parent="1" source="4RP1gJWLFT8ZAEQXTZWP-5" target="4RP1gJWLFT8ZAEQXTZWP-4">
          <mxGeometry relative="1" as="geometry" />
        </mxCell>
        <mxCell id="4RP1gJWLFT8ZAEQXTZWP-5" value="Empleado" style="swimlane;fontStyle=1;align=center;verticalAlign=top;childLayout=stackLayout;horizontal=1;startSize=26;horizontalStack=0;resizeParent=1;resizeParentMax=0;resizeLast=0;collapsible=1;marginBottom=0;whiteSpace=wrap;html=1;" parent="1" vertex="1">
          <mxGeometry x="30" y="180" width="230" height="200" as="geometry">
            <mxRectangle x="60" y="160" width="110" height="30" as="alternateBounds" />
          </mxGeometry>
        </mxCell>
        <mxCell id="4RP1gJWLFT8ZAEQXTZWP-6" value="&lt;div&gt;nombre:(string)&lt;/div&gt;&lt;div&gt;dirección:(string)&lt;/div&gt;&lt;div&gt;estadoCivil:(string)&lt;/div&gt;&lt;div&gt;fechaNacimiento:(Fecha)&lt;/div&gt;&lt;div&gt;sueldoBasico:(int)&lt;/div&gt;&lt;div&gt;&lt;br&gt;&lt;/div&gt;" style="text;strokeColor=none;fillColor=none;align=left;verticalAlign=top;spacingLeft=4;spacingRight=4;overflow=hidden;rotatable=0;points=[[0,0.5],[1,0.5]];portConstraint=eastwest;whiteSpace=wrap;html=1;" parent="4RP1gJWLFT8ZAEQXTZWP-5" vertex="1">
          <mxGeometry y="26" width="230" height="90" as="geometry" />
        </mxCell>
        <mxCell id="4RP1gJWLFT8ZAEQXTZWP-7" value="" style="line;strokeWidth=1;fillColor=none;align=left;verticalAlign=middle;spacingTop=-1;spacingLeft=3;spacingRight=3;rotatable=0;labelPosition=right;points=[];portConstraint=eastwest;strokeColor=inherit;" parent="4RP1gJWLFT8ZAEQXTZWP-5" vertex="1">
          <mxGeometry y="116" width="230" height="30" as="geometry" />
        </mxCell>
        <mxCell id="4RP1gJWLFT8ZAEQXTZWP-8" value="&lt;div&gt;edad():int&lt;/div&gt;&lt;div&gt;Empleado(string,string,string,Fecha,int): Empleado&lt;/div&gt;" style="text;strokeColor=none;fillColor=none;align=left;verticalAlign=top;spacingLeft=4;spacingRight=4;overflow=hidden;rotatable=0;points=[[0,0.5],[1,0.5]];portConstraint=eastwest;whiteSpace=wrap;html=1;" parent="4RP1gJWLFT8ZAEQXTZWP-5" vertex="1">
          <mxGeometry y="146" width="230" height="54" as="geometry" />
        </mxCell>
        <mxCell id="4RP1gJWLFT8ZAEQXTZWP-16" value="EmpleadoPlantaPermanente" style="swimlane;fontStyle=1;align=center;verticalAlign=top;childLayout=stackLayout;horizontal=1;startSize=26;horizontalStack=0;resizeParent=1;resizeParentMax=0;resizeLast=0;collapsible=1;marginBottom=0;whiteSpace=wrap;html=1;" parent="1" vertex="1">
          <mxGeometry x="-125" y="460" width="190" height="60" as="geometry" />
        </mxCell>
        <mxCell id="4RP1gJWLFT8ZAEQXTZWP-17" value="&lt;div&gt;cantidadHijos(int)&lt;/div&gt;&lt;div&gt;antiguedad(int)&lt;br&gt;&lt;/div&gt;" style="text;strokeColor=none;fillColor=none;align=left;verticalAlign=top;spacingLeft=4;spacingRight=4;overflow=hidden;rotatable=0;points=[[0,0.5],[1,0.5]];portConstraint=eastwest;whiteSpace=wrap;html=1;" parent="4RP1gJWLFT8ZAEQXTZWP-16" vertex="1">
          <mxGeometry y="26" width="190" height="34" as="geometry" />
        </mxCell>
        <mxCell id="4RP1gJWLFT8ZAEQXTZWP-20" value="EmpleadoPlantaTemporal" style="swimlane;fontStyle=1;align=center;verticalAlign=top;childLayout=stackLayout;horizontal=1;startSize=26;horizontalStack=0;resizeParent=1;resizeParentMax=0;resizeLast=0;collapsible=1;marginBottom=0;whiteSpace=wrap;html=1;" parent="1" vertex="1">
          <mxGeometry x="184" y="460" width="230" height="106" as="geometry" />
        </mxCell>
        <mxCell id="4RP1gJWLFT8ZAEQXTZWP-21" value="&lt;div&gt;fechaFinTemporal: Fecha&lt;/div&gt;&lt;div&gt;cantidadHorasExtras: int&lt;br&gt;&lt;/div&gt;&lt;div&gt;&lt;br&gt;&lt;/div&gt;&lt;div&gt;&lt;br&gt;&lt;/div&gt;" style="text;strokeColor=none;fillColor=none;align=left;verticalAlign=top;spacingLeft=4;spacingRight=4;overflow=hidden;rotatable=0;points=[[0,0.5],[1,0.5]];portConstraint=eastwest;whiteSpace=wrap;html=1;" parent="4RP1gJWLFT8ZAEQXTZWP-20" vertex="1">
          <mxGeometry y="26" width="230" height="42" as="geometry" />
        </mxCell>
        <mxCell id="4RP1gJWLFT8ZAEQXTZWP-22" value="" style="line;strokeWidth=1;fillColor=none;align=left;verticalAlign=middle;spacingTop=-1;spacingLeft=3;spacingRight=3;rotatable=0;labelPosition=right;points=[];portConstraint=eastwest;strokeColor=inherit;" parent="4RP1gJWLFT8ZAEQXTZWP-20" vertex="1">
          <mxGeometry y="68" width="230" height="8" as="geometry" />
        </mxCell>
        <mxCell id="4RP1gJWLFT8ZAEQXTZWP-23" value="sueldoBruto():int" style="text;strokeColor=none;fillColor=none;align=left;verticalAlign=top;spacingLeft=4;spacingRight=4;overflow=hidden;rotatable=0;points=[[0,0.5],[1,0.5]];portConstraint=eastwest;whiteSpace=wrap;html=1;" parent="4RP1gJWLFT8ZAEQXTZWP-20" vertex="1">
          <mxGeometry y="76" width="230" height="30" as="geometry" />
        </mxCell>
        <mxCell id="4RP1gJWLFT8ZAEQXTZWP-25" value="&lt;div align=&quot;left&quot;&gt;sueldoBruto():int&lt;br&gt;&lt;/div&gt;" style="html=1;whiteSpace=wrap;align=left;" parent="1" vertex="1">
          <mxGeometry x="-125" y="520" width="190" height="20" as="geometry" />
        </mxCell>
        <mxCell id="4RP1gJWLFT8ZAEQXTZWP-35" value="" style="line;strokeWidth=2;html=1;rotation=-90;" parent="1" vertex="1">
          <mxGeometry x="79.38" y="416.88" width="111.25" height="10" as="geometry" />
        </mxCell>
        <mxCell id="4RP1gJWLFT8ZAEQXTZWP-36" value="" style="line;strokeWidth=2;html=1;" parent="1" vertex="1">
          <mxGeometry x="65" y="470" width="120" height="10" as="geometry" />
        </mxCell>
        <mxCell id="4RP1gJWLFT8ZAEQXTZWP-37" value="&lt;div align=&quot;left&quot;&gt;pagoEmpleados():int&lt;/div&gt;&lt;div align=&quot;left&quot;&gt;totalSueldosBrutos():int&lt;/div&gt;&lt;div align=&quot;left&quot;&gt;totalRetencionesEmpleados():int&lt;br&gt;&lt;/div&gt;&lt;div align=&quot;left&quot;&gt;Empesa(string,string,[Empleado]): Empresa&lt;/div&gt;" style="html=1;whiteSpace=wrap;align=left;" parent="1" vertex="1">
          <mxGeometry x="414" y="114" width="186" height="86" as="geometry" />
        </mxCell>
        <mxCell id="zsc-BNoff0piDxbKsgNx-13" style="edgeStyle=orthogonalEdgeStyle;rounded=0;orthogonalLoop=1;jettySize=auto;html=1;exitX=0.5;exitY=0;exitDx=0;exitDy=0;entryX=1;entryY=0.5;entryDx=0;entryDy=0;" edge="1" parent="1" source="4RP1gJWLFT8ZAEQXTZWP-38" target="4RP1gJWLFT8ZAEQXTZWP-3">
          <mxGeometry relative="1" as="geometry" />
        </mxCell>
        <mxCell id="4RP1gJWLFT8ZAEQXTZWP-38" value="LiquidacionDeSueldo" style="swimlane;fontStyle=1;align=center;verticalAlign=top;childLayout=stackLayout;horizontal=1;startSize=26;horizontalStack=0;resizeParent=1;resizeParentMax=0;resizeLast=0;collapsible=1;marginBottom=0;whiteSpace=wrap;html=1;" parent="1" vertex="1">
          <mxGeometry x="610" y="280" width="170" height="188" as="geometry" />
        </mxCell>
        <mxCell id="4RP1gJWLFT8ZAEQXTZWP-39" value="&lt;div&gt;nombreEmpleado(string)&lt;/div&gt;&lt;div&gt;direccionEmpleado(string)&lt;/div&gt;&lt;div&gt;fechaEmision(Fecha)&lt;/div&gt;&lt;div&gt;sueldoBruto(int)&lt;/div&gt;&lt;div&gt;sueldoNeto(int)&lt;/div&gt;&lt;div&gt;desgloceConceptos(string)&lt;/div&gt;&lt;div&gt;&lt;br&gt;&lt;/div&gt;&lt;div&gt;&lt;br&gt;&lt;/div&gt;" style="text;strokeColor=none;fillColor=none;align=left;verticalAlign=top;spacingLeft=4;spacingRight=4;overflow=hidden;rotatable=0;points=[[0,0.5],[1,0.5]];portConstraint=eastwest;whiteSpace=wrap;html=1;" parent="4RP1gJWLFT8ZAEQXTZWP-38" vertex="1">
          <mxGeometry y="26" width="170" height="134" as="geometry" />
        </mxCell>
        <mxCell id="4RP1gJWLFT8ZAEQXTZWP-40" value="" style="line;strokeWidth=1;fillColor=none;align=left;verticalAlign=middle;spacingTop=-1;spacingLeft=3;spacingRight=3;rotatable=0;labelPosition=right;points=[];portConstraint=eastwest;strokeColor=inherit;" parent="4RP1gJWLFT8ZAEQXTZWP-38" vertex="1">
          <mxGeometry y="160" width="170" height="28" as="geometry" />
        </mxCell>
        <mxCell id="zsc-BNoff0piDxbKsgNx-2" value="" style="triangle;whiteSpace=wrap;html=1;rotation=-90;" vertex="1" parent="1">
          <mxGeometry x="125" y="360" width="20.01" height="25" as="geometry" />
        </mxCell>
      </root>
    </mxGraphModel>
  </diagram>
</mxfile>
